<mxGraphModel dx="838" dy="0" grid="1" gridSize="10" guides="1" tooltips="1" connect="1" arrows="1" fold="1" page="1" pageScale="1" pageWidth="827" pageHeight="1169" math="0" shadow="0"><root><mxCell id="0"/><mxCell id="1" parent="0"/><mxCell id="2" value="" style="verticalLabelPosition=bottom;shadow=0;dashed=0;align=center;html=1;verticalAlign=top;shape=mxgraph.electrical.logic_gates.logic_gate;operation=and;" parent="1" vertex="1"><mxGeometry x="690" y="650" width="100" height="60" as="geometry"/></mxCell><mxCell id="3" value="" style="verticalLabelPosition=bottom;shadow=0;dashed=0;align=center;html=1;verticalAlign=top;shape=mxgraph.electrical.logic_gates.logic_gate;operation=and;" parent="1" vertex="1"><mxGeometry x="690" y="790" width="100" height="60" as="geometry"/></mxCell><mxCell id="10" style="edgeStyle=none;html=1;exitX=1;exitY=0.5;exitDx=0;exitDy=0;exitPerimeter=0;" parent="1" source="6" edge="1"><mxGeometry relative="1" as="geometry"><mxPoint x="1070" y="805" as="targetPoint"/></mxGeometry></mxCell><mxCell id="6" value="" style="verticalLabelPosition=bottom;shadow=0;dashed=0;align=center;html=1;verticalAlign=top;shape=mxgraph.electrical.logic_gates.logic_gate;operation=or;negating=1;negSize=0.15;" parent="1" vertex="1"><mxGeometry x="873" y="775" width="100" height="60" as="geometry"/></mxCell><mxCell id="7" value="" style="verticalLabelPosition=bottom;shadow=0;dashed=0;align=center;html=1;verticalAlign=top;shape=mxgraph.electrical.logic_gates.logic_gate;operation=or;negating=1;negSize=0.15;" parent="1" vertex="1"><mxGeometry x="880" y="665" width="100" height="60" as="geometry"/></mxCell><mxCell id="11" value="" style="endArrow=none;html=1;exitX=1;exitY=0.5;exitDx=0;exitDy=0;exitPerimeter=0;entryX=0;entryY=0.25;entryDx=0;entryDy=0;entryPerimeter=0;" parent="1" source="2" target="7" edge="1"><mxGeometry width="50" height="50" relative="1" as="geometry"><mxPoint x="740" y="565" as="sourcePoint"/><mxPoint x="790" y="515" as="targetPoint"/></mxGeometry></mxCell><mxCell id="12" value="" style="endArrow=none;html=1;exitX=1;exitY=0.5;exitDx=0;exitDy=0;exitPerimeter=0;entryX=0;entryY=0.75;entryDx=0;entryDy=0;entryPerimeter=0;" parent="1" source="3" target="6" edge="1"><mxGeometry width="50" height="50" relative="1" as="geometry"><mxPoint x="790" y="530" as="sourcePoint"/><mxPoint x="840" y="480" as="targetPoint"/></mxGeometry></mxCell><mxCell id="13" value="" style="endArrow=none;html=1;entryX=0;entryY=0.75;entryDx=0;entryDy=0;entryPerimeter=0;exitX=1;exitY=0.5;exitDx=0;exitDy=0;exitPerimeter=0;" parent="1" source="6" target="7" edge="1"><mxGeometry width="50" height="50" relative="1" as="geometry"><mxPoint x="1010" y="775" as="sourcePoint"/><mxPoint x="1053" y="665" as="targetPoint"/></mxGeometry></mxCell><mxCell id="14" style="edgeStyle=none;html=1;exitX=1;exitY=0.5;exitDx=0;exitDy=0;exitPerimeter=0;" parent="1" source="7" edge="1"><mxGeometry relative="1" as="geometry"><mxPoint x="1070" y="695" as="targetPoint"/><mxPoint x="990" y="675" as="sourcePoint"/></mxGeometry></mxCell><mxCell id="15" value="" style="endArrow=none;html=1;entryX=1;entryY=0.5;entryDx=0;entryDy=0;entryPerimeter=0;exitX=0;exitY=0.25;exitDx=0;exitDy=0;exitPerimeter=0;" parent="1" source="6" target="7" edge="1"><mxGeometry width="50" height="50" relative="1" as="geometry"><mxPoint x="933" y="1080" as="sourcePoint"/><mxPoint x="840" y="930" as="targetPoint"/></mxGeometry></mxCell><mxCell id="16" value="" style="endArrow=none;html=1;exitX=1;exitY=0.5;exitDx=0;exitDy=0;exitPerimeter=0;entryX=0;entryY=0.25;entryDx=0;entryDy=0;entryPerimeter=0;" parent="1" source="24" target="2" edge="1"><mxGeometry width="50" height="50" relative="1" as="geometry"><mxPoint x="520" y="665" as="sourcePoint"/><mxPoint x="610" y="665" as="targetPoint"/></mxGeometry></mxCell><mxCell id="21" value="&lt;font style=&quot;font-size: 30px;&quot;&gt;S&lt;/font&gt;&lt;span style=&quot;color: rgba(0, 0, 0, 0); font-family: monospace; font-size: 0px; text-align: start; background-color: rgb(42, 37, 47);&quot;&gt;%3CmxGraphModel%3E%3Croot%3E%3CmxCell%20id%3D%220%22%2F%3E%3CmxCell%20id%3D%221%22%20parent%3D%220%22%2F%3E%3CmxCell%20id%3D%222%22%20value%3D%22%22%20style%3D%22endArrow%3Dnone%3Bhtml%3D1%3BentryX%3D0%3BentryY%3D0.75%3BentryDx%3D0%3BentryDy%3D0%3BentryPerimeter%3D0%3B%22%20edge%3D%221%22%20parent%3D%221%22%3E%3CmxGeometry%20width%3D%2250%22%20height%3D%2250%22%20relative%3D%221%22%20as%3D%22geometry%22%3E%3CmxPoint%20x%3D%22140%22%20y%3D%22805%22%20as%3D%22sourcePoint%22%2F%3E%3CmxPoint%20x%3D%22310%22%20y%3D%22805%22%20as%3D%22targetPoint%22%2F%3E%3C%2FmxGeometry%3E%3C%2FmxCell%3E%3C%2Froot%3E%3C%2FmxGraphModel%3E&lt;/span&gt;" style="edgeLabel;html=1;align=center;verticalAlign=middle;resizable=0;points=[];" parent="16" vertex="1" connectable="0"><mxGeometry x="-0.894" y="-1" relative="1" as="geometry"><mxPoint x="21" y="-26" as="offset"/></mxGeometry></mxCell><mxCell id="17" value="" style="endArrow=none;html=1;entryX=0;entryY=0.75;entryDx=0;entryDy=0;entryPerimeter=0;exitX=1;exitY=0.5;exitDx=0;exitDy=0;exitPerimeter=0;" parent="1" source="24" target="3" edge="1"><mxGeometry width="50" height="50" relative="1" as="geometry"><mxPoint x="520" y="835" as="sourcePoint"/><mxPoint x="670" y="835" as="targetPoint"/><Array as="points"><mxPoint x="480" y="835"/></Array></mxGeometry></mxCell><mxCell id="18" value="" style="endArrow=none;html=1;entryX=0;entryY=0.75;entryDx=0;entryDy=0;entryPerimeter=0;exitX=0;exitY=0.25;exitDx=0;exitDy=0;exitPerimeter=0;" parent="1" source="3" target="2" edge="1"><mxGeometry width="50" height="50" relative="1" as="geometry"><mxPoint x="510" y="725" as="sourcePoint"/><mxPoint x="680" y="725" as="targetPoint"/><Array as="points"/></mxGeometry></mxCell><mxCell id="19" value="" style="endArrow=none;html=1;" parent="1" edge="1"><mxGeometry width="50" height="50" relative="1" as="geometry"><mxPoint x="500" y="751" as="sourcePoint"/><mxPoint x="690" y="751" as="targetPoint"/></mxGeometry></mxCell><mxCell id="22" value="&lt;span style=&quot;font-size: 30px;&quot;&gt;R&lt;/span&gt;" style="edgeLabel;html=1;align=center;verticalAlign=middle;resizable=0;points=[];" parent="1" vertex="1" connectable="0"><mxGeometry x="560" y="650" as="geometry"><mxPoint x="-15" y="157" as="offset"/></mxGeometry></mxCell><mxCell id="23" value="&lt;span style=&quot;font-size: 30px;&quot;&gt;EN&lt;br&gt;&lt;/span&gt;" style="edgeLabel;html=1;align=center;verticalAlign=middle;resizable=0;points=[];" parent="1" vertex="1" connectable="0"><mxGeometry x="550" y="670" as="geometry"><mxPoint x="12" y="52" as="offset"/></mxGeometry></mxCell><mxCell id="24" value="" style="verticalLabelPosition=bottom;shadow=0;dashed=0;align=center;html=1;verticalAlign=top;shape=mxgraph.electrical.logic_gates.inverter_2;fontSize=30;" parent="1" vertex="1"><mxGeometry x="400" y="636" width="80" height="60" as="geometry"/></mxCell><mxCell id="29" value="" style="endArrow=none;html=1;fontSize=30;entryX=0;entryY=0.5;entryDx=0;entryDy=0;entryPerimeter=0;" parent="1" target="24" edge="1"><mxGeometry width="50" height="50" relative="1" as="geometry"><mxPoint x="260" y="666" as="sourcePoint"/><mxPoint x="270" y="590" as="targetPoint"/></mxGeometry></mxCell><mxCell id="30" value="&lt;span style=&quot;font-size: 30px;&quot;&gt;D&lt;/span&gt;" style="edgeLabel;html=1;align=center;verticalAlign=middle;resizable=0;points=[];" parent="1" vertex="1" connectable="0"><mxGeometry x="522.0046371363405" y="649.9976083038216" as="geometry"><mxPoint x="-238" y="-13" as="offset"/></mxGeometry></mxCell><mxCell id="31" value="" style="shape=table;startSize=0;container=1;collapsible=0;childLayout=tableLayout;" vertex="1" parent="1"><mxGeometry x="290" y="590" width="300" height="40" as="geometry"/></mxCell><mxCell id="32" value="" style="shape=partialRectangle;collapsible=0;dropTarget=0;pointerEvents=0;fillColor=none;top=0;left=0;bottom=0;right=0;points=[[0,0.5],[1,0.5]];portConstraint=eastwest;" vertex="1" parent="31"><mxGeometry width="300" height="40" as="geometry"/></mxCell><mxCell id="33" value="" style="shape=partialRectangle;html=1;whiteSpace=wrap;connectable=0;overflow=hidden;fillColor=none;top=0;left=0;bottom=0;right=0;pointerEvents=1;" vertex="1" parent="32"><mxGeometry width="60" height="40" as="geometry"/></mxCell><mxCell id="34" value="" style="shape=partialRectangle;html=1;whiteSpace=wrap;connectable=0;overflow=hidden;fillColor=none;top=0;left=0;bottom=0;right=0;pointerEvents=1;" vertex="1" parent="32"><mxGeometry x="60" width="60" height="40" as="geometry"/></mxCell><mxCell id="35" value="" style="shape=partialRectangle;html=1;whiteSpace=wrap;connectable=0;overflow=hidden;fillColor=none;top=0;left=0;bottom=0;right=0;pointerEvents=1;" vertex="1" parent="32"><mxGeometry x="120" width="60" height="40" as="geometry"/></mxCell><mxCell id="36" value="" style="shape=partialRectangle;html=1;whiteSpace=wrap;connectable=0;overflow=hidden;fillColor=none;top=0;left=0;bottom=0;right=0;pointerEvents=1;" vertex="1" parent="32"><mxGeometry x="180" width="60" height="40" as="geometry"/></mxCell><mxCell id="37" value="" style="shape=partialRectangle;html=1;whiteSpace=wrap;connectable=0;overflow=hidden;fillColor=none;top=0;left=0;bottom=0;right=0;pointerEvents=1;" vertex="1" parent="32"><mxGeometry x="240" width="60" height="40" as="geometry"/></mxCell></root></mxGraphModel>